<?xml version="1.0" encoding="iso-8859-1"?><svg id="Layer_1" data-name="Layer 1" xmlns="http://www.w3.org/2000/svg" viewBox="0 0 300 300"><defs><style>.cls-1,.cls-2{fill:#2e2ea3;}.cls-2{fill-rule:evenodd;}</style></defs><title>DreamFactory-Avatar</title><circle class="cls-1" cx="80.1" cy="98.1" r="12.7"/><path class="cls-2" d="M122.7,198.5c-4.8-5.9-8.8-11.2-19.5-27.1-6.2-9.2-13.7-13.4-20-14.3a9,9,0,0,0-2.5-.3,28.9,28.9,0,0,0,.1,57.8h58.6C132.8,211.7,127.4,204.4,122.7,198.5Z"/><circle class="cls-1" cx="68.3" cy="129.4" r="8.9"/><path class="cls-2" d="M219.2,152a25.6,25.6,0,0,0,.3-3.9,21.8,21.8,0,0,0-13.8-20.3,23.2,23.2,0,0,0-9.1-1.9,29.8,29.8,0,0,0-4.2.4,53.2,53.2,0,0,0-20.5-24.2A54.6,54.6,0,0,0,86.4,148h0c15.7,4.2,29.8,19.5,37.7,25.2a55.3,55.3,0,0,0,63.7-.2,78.5,78.5,0,0,1,14.8-7.9,48.2,48.2,0,0,1,11.2-2.7h.3a25.7,25.7,0,0,1,6.2,0c11.5,1.4,18.6,10,18.7,20s-9.1,8.3-8.8,2.7c.4-7.9-5.1-12.7-11.8-13.6s-8.8,2.1-10.5,3.4-5.3,4.9-11,15.9c-4.9,9.2-12.6,19.7-22.1,23.7h42.1a31.2,31.2,0,0,0,2.3-62.3Zm-62.7,22c-10.3,0-20-3.5-28.6-8a49.1,49.1,0,0,1,26-9.1,9.2,9.2,0,0,1-1.6-6.3c.2-3.7,1.8-9.1,4.2-11.7,2.5,2.6,4,8,4.3,11.7a9.8,9.8,0,0,1-1.7,6.3,49.4,49.4,0,0,1,26.1,9.1C176.6,170.5,166.8,174,156.5,174Z"/></svg>
